<?xml version="1.0" standalone="no"?>
<!DOCTYPE svg PUBLIC "-//W3C//DTD SVG 20010904//EN"
 "http://www.w3.org/TR/2001/REC-SVG-20010904/DTD/svg10.dtd">
<svg version="1.0" xmlns="http://www.w3.org/2000/svg"
 width="22.000000pt" height="22.000000pt" viewBox="0 0 512.000000 512.000000"
 preserveAspectRatio="xMidYMid meet">

<g transform="translate(0.000000,512.000000) scale(0.100000,-0.100000)"
fill="#000000" stroke="none">
<path d="M2344 5109 c-1018 -91 -1884 -772 -2209 -1738 -94 -278 -129 -495
-128 -796 0 -237 14 -369 59 -575 206 -931 926 -1674 1854 -1915 227 -59 382
-78 635 -78 236 -1 345 11 564 59 415 93 783 279 1116 565 469 402 769 958
861 1594 24 166 24 507 0 665 -40 266 -110 510 -210 730 -270 595 -780 1080
-1385 1317 -363 143 -784 205 -1157 172z m576 -194 c403 -62 812 -243 1130
-499 105 -85 304 -285 381 -386 254 -328 411 -688 480 -1094 26 -158 36 -463
20 -617 -47 -440 -209 -847 -479 -1204 -42 -55 -139 -163 -217 -240 -211 -211
-385 -334 -660 -466 -166 -79 -245 -109 -420 -154 -216 -57 -329 -70 -595 -70
-267 0 -379 13 -599 71 -307 80 -576 210 -840 406 -121 90 -364 334 -457 458
-241 322 -387 662 -455 1055 -30 173 -37 506 -15 675 93 702 470 1308 1056
1695 334 221 657 335 1100 389 81 10 469 -3 570 -19z"/>
<path d="M2271 4445 c-349 -105 -604 -362 -706 -710 -33 -110 -44 -307 -26
-433 21 -144 89 -314 173 -432 45 -65 174 -198 224 -232 18 -12 34 -26 34 -29
0 -3 -26 -16 -57 -29 -226 -92 -476 -288 -634 -495 -150 -198 -265 -456 -305
-688 -32 -183 -15 -267 71 -353 89 -89 19 -84 1127 -84 l969 0 -2 302 c-2 303
-2 303 25 393 15 50 38 109 50 132 l24 41 -157 4 c-183 4 -232 20 -302 95 -70
76 -82 116 -77 257 7 177 58 322 160 461 126 172 300 287 503 336 50 12 95 23
101 24 15 4 81 195 95 275 15 87 15 257 0 355 -15 92 -66 237 -115 323 -127
225 -319 384 -572 474 -88 31 -92 32 -304 35 -206 3 -219 2 -299 -22z"/>
<path d="M3494 2701 c-187 -30 -352 -149 -435 -313 -32 -64 -59 -163 -59 -220
l0 -38 139 0 139 0 11 50 c15 68 42 118 88 161 150 143 376 99 474 -91 35 -66
33 -176 -3 -245 -35 -68 -82 -114 -158 -154 -159 -85 -250 -226 -250 -388 l0
-63 144 0 144 0 4 65 c5 78 22 100 122 153 133 69 232 187 279 332 35 105 41
178 23 280 -39 220 -192 391 -403 453 -65 20 -193 28 -259 18z"/>
<path d="M3440 1095 l0 -145 140 0 140 0 0 145 0 145 -140 0 -140 0 0 -145z"/>
</g>
</svg>
