<svg width="22" height="22" viewBox="0 0 370 370" fill="none" xmlns="http://www.w3.org/2000/svg">
<path d="M278 98L278 172.5C278 190.5 272.5 216 243.5 216C225 216 207.5 202 207.5 172.5C207.5 154 207.5 139 207.5 139L189 158" stroke="#F53D3D" stroke-width="15" stroke-linecap="round" stroke-linejoin="round"/>
<rect x="47" y="192" width="275" height="116" rx="30" fill="#2E76E5" stroke="#97C0FF" stroke-width="15"/>
<path d="M245.735 272L231 226H241.81L254.614 266.743H249.209L262.592 226H272.244L285.113 266.743H279.901L293.027 226H303L288.265 272H277.07L265.681 236.251H268.641L256.93 272H245.735Z" fill="white"/>
<path d="M182.735 272L168 226H178.81L191.614 266.743H186.209L199.592 226H209.244L222.113 266.743H216.901L230.027 226H240L225.265 272H214.07L202.681 236.251H205.641L193.93 272H182.735Z" fill="white"/>
<path d="M153.5 260C150.613 260 148.124 259.026 146.031 257.077C144.01 255.057 143 252.495 143 249.392C143 246.289 144.01 243.799 146.031 241.923C148.124 239.974 150.613 239 153.5 239C156.459 239 158.948 239.974 160.969 241.923C162.99 243.799 164 246.289 164 249.392C164 252.495 162.99 255.057 160.969 257.077C158.948 259.026 156.459 260 153.5 260Z" fill="white"/>
<path d="M244.5 226C241.613 226 239.124 225.026 237.031 223.077C235.01 221.057 234 218.495 234 215.392C234 212.289 235.01 209.799 237.031 207.923C239.124 205.974 241.613 205 244.5 205C247.459 205 249.948 205.974 251.969 207.923C253.99 209.799 255 212.289 255 215.392C255 218.495 253.99 221.057 251.969 223.077C249.948 225.026 247.459 226 244.5 226Z" fill="#014280"/>
<path d="M75 280V219H92.3645V226.951H84.9958V272.049H92.3645V280H75Z" fill="white"/>
<path d="M96.3537 253.084V244.938H114.487V253.084H96.3537Z" fill="white"/>
<path d="M136 280H118.7V272.049H126.004V226.951H118.7V219H136V280Z" fill="white"/>
<path d="M278 47C291.807 47 303 58.1929 303 72C303 85.8071 291.807 97 278 97C264.193 97 253 85.8071 253 72C253 58.1929 264.193 47 278 47Z" stroke="#F53D3D" stroke-width="15" stroke-linecap="round" stroke-linejoin="round"/>
<path d="M243.5 216C225 216 207.5 202 207.5 172.5C207.5 154 207.5 139 207.5 139L189 158" stroke="#F53D3D" stroke-width="15" stroke-linecap="round" stroke-linejoin="round"/>
</svg>
